<svg width="52" height="33" viewBox="0 0 52 33" fill="none" xmlns="http://www.w3.org/2000/svg">
<path d="M0.488403 0H52V33H0.488403V0Z" fill="#3BA46B"/>
<path d="M32.3458 22.6377L29.7601 20.1844C30.7638 18.9873 31.2498 17.4679 31.1183 15.9386C30.9868 14.4092 30.2477 12.9862 29.0531 11.9621C27.8584 10.938 26.2989 10.3907 24.6954 10.4327C23.0918 10.4746 21.5659 11.1027 20.4316 12.1878C19.2973 13.2728 18.6407 14.7324 18.5968 16.2663C18.5529 17.8002 19.1251 19.2919 20.1957 20.4347C21.2663 21.5775 22.7539 22.2844 24.3527 22.4102C25.9515 22.536 27.5399 22.0711 28.7914 21.111L31.3561 23.5644C31.4209 23.6268 31.498 23.6764 31.5829 23.7103C31.6678 23.7441 31.7589 23.7615 31.8509 23.7615C31.943 23.7615 32.034 23.7441 32.119 23.7103C32.2039 23.6764 32.281 23.6268 32.3458 23.5644C32.4714 23.44 32.5416 23.2739 32.5416 23.101C32.5416 22.9281 32.4714 22.762 32.3458 22.6377ZM24.8815 21.111C23.9166 21.111 22.9734 20.8373 22.1711 20.3245C21.3688 19.8118 20.7435 19.0829 20.3742 18.2302C20.005 17.3775 19.9084 16.4392 20.0966 15.5339C20.2849 14.6287 20.7495 13.7972 21.4318 13.1445C22.1141 12.4919 22.9834 12.0474 23.9297 11.8674C24.8761 11.6873 25.857 11.7797 26.7485 12.1329C27.6399 12.4861 28.4018 13.0843 28.9379 13.8517C29.474 14.6191 29.7601 15.5214 29.7601 16.4444C29.7601 17.682 29.2461 18.869 28.3312 19.7442C27.4163 20.6194 26.1754 21.111 24.8815 21.111Z" fill="white"/>
</svg>
