<svg width="32" height="31" viewBox="0 0 32 31" fill="none" xmlns="http://www.w3.org/2000/svg">
<path d="M16.0312 0.916748C12.9693 0.922122 9.9751 1.74991 7.4134 3.29928C4.8517 4.84866 2.83304 7.05274 1.6033 9.64308C0.373556 12.2334 -0.0141916 15.0982 0.487285 17.8885C0.988762 20.6788 2.35782 23.2741 4.4277 25.3584C5.90604 26.8387 7.70027 28.0201 9.69733 28.8281C11.6944 29.6361 13.851 30.0533 16.0312 30.0533C18.2114 30.0533 20.368 29.6361 22.3651 28.8281C24.3621 28.0201 26.1564 26.8387 27.6347 25.3584C29.7046 23.2741 31.0737 20.6788 31.5751 17.8885C32.0766 15.0982 31.6889 12.2334 30.4591 9.64308C29.2294 7.05274 27.2107 4.84866 24.649 3.29928C22.0873 1.74991 19.0931 0.922122 16.0312 0.916748ZM16.0312 27.1667C12.7609 27.1622 9.61994 25.9859 7.26937 23.8855C7.98302 22.2807 9.19703 20.908 10.7571 19.942C12.3173 18.976 14.153 18.4602 16.0312 18.4602C17.9094 18.4602 19.7452 18.976 21.3053 19.942C22.8654 20.908 24.0794 22.2807 24.793 23.8855C22.4425 25.9859 19.3016 27.1622 16.0312 27.1667ZM12.8738 12.5834C12.8738 12.0066 13.059 11.4426 13.4059 10.963C13.7529 10.4834 14.246 10.1095 14.8229 9.88877C15.3999 9.66801 16.0347 9.61025 16.6472 9.72279C17.2597 9.83533 17.8223 10.1131 18.2638 10.521C18.7054 10.9289 19.0061 11.4486 19.128 12.0144C19.2498 12.5802 19.1873 13.1666 18.9483 13.6996C18.7093 14.2325 18.3046 14.688 17.7854 15.0085C17.2661 15.329 16.6557 15.5001 16.0312 15.5001C15.1938 15.5001 14.3907 15.1928 13.7986 14.6458C13.2064 14.0988 12.8738 13.357 12.8738 12.5834ZM26.9401 21.3334C25.5296 19.1047 23.3586 17.3712 20.7673 16.4042C21.5712 15.5623 22.0949 14.524 22.2757 13.4138C22.4566 12.3037 22.2868 11.169 21.7868 10.1458C21.2868 9.12262 20.4778 8.25444 19.4569 7.64545C18.4359 7.03646 17.2465 6.71253 16.0312 6.71253C14.8159 6.71253 13.6265 7.03646 12.6056 7.64545C11.5846 8.25444 10.7756 9.12262 10.2756 10.1458C9.77562 11.169 9.60584 12.3037 9.78667 13.4138C9.9675 14.524 10.4913 15.5623 11.2951 16.4042C8.70379 17.3712 6.53286 19.1047 5.12233 21.3334C3.9982 19.5646 3.40425 17.5512 3.40154 15.5001C3.40154 12.4059 4.73216 9.43843 7.10068 7.2505C9.4692 5.06258 12.6816 3.83341 16.0312 3.83341C19.3808 3.83341 22.5932 5.06258 24.9617 7.2505C27.3302 9.43843 28.6609 12.4059 28.6609 15.5001C28.6582 17.5512 28.0642 19.5646 26.9401 21.3334Z" fill="#AC2421"/>
</svg>
