<svg width="31" height="27" viewBox="0 0 31 27" fill="none" xmlns="http://www.w3.org/2000/svg">
<path d="M28.1256 3.00235C26.485 1.42161 24.3102 0.456816 21.994 0.282246C19.6778 0.107676 17.3731 0.734839 15.496 2.05045C13.5268 0.642879 11.0757 0.00462018 8.63629 0.264201C6.19693 0.523781 3.95052 1.66192 2.34943 3.44942C0.748337 5.23692 -0.0885054 7.54101 0.00742207 9.8977C0.10335 12.2544 1.12492 14.4886 2.86642 16.1505L12.4779 25.4018C13.2828 26.163 14.3668 26.5896 15.496 26.5896C16.6253 26.5896 17.7093 26.163 18.5141 25.4018L28.1256 16.1505C29.9328 14.4032 30.9471 12.0399 30.9471 9.57642C30.9471 7.11297 29.9328 4.74958 28.1256 3.00235ZM25.9433 14.0979L16.3318 23.3344C16.2224 23.4405 16.0923 23.5247 15.9488 23.5822C15.8054 23.6397 15.6515 23.6693 15.496 23.6693C15.3406 23.6693 15.1867 23.6397 15.0433 23.5822C14.8998 23.5247 14.7696 23.4405 14.6602 23.3344L5.04874 14.0533C3.83493 12.861 3.15524 11.2593 3.15524 9.59129C3.15524 7.92328 3.83493 6.32159 5.04874 5.12925C6.28563 3.95572 7.95382 3.29769 9.69198 3.29769C11.4301 3.29769 13.0983 3.95572 14.3352 5.12925C14.4791 5.26866 14.6503 5.37931 14.8389 5.45482C15.0275 5.53033 15.2298 5.56921 15.4341 5.56921C15.6384 5.56921 15.8407 5.53033 16.0294 5.45482C16.218 5.37931 16.3891 5.26866 16.533 5.12925C17.7699 3.95572 19.4381 3.29769 21.1763 3.29769C22.9144 3.29769 24.5826 3.95572 25.8195 5.12925C27.05 6.30597 27.752 7.89897 27.7751 9.56703C27.7983 11.2351 27.1407 12.8455 25.9433 14.0533V14.0979Z" fill="#AC2421"/>
</svg>
