<svg width="20" height="16" viewBox="0 0 20 16" fill="none" xmlns="http://www.w3.org/2000/svg">
<path d="M17 0.625H3C2.20435 0.625 1.44129 0.911439 0.87868 1.4213C0.316071 1.93117 0 2.62269 0 3.34375V12.4062C0 13.1273 0.316071 13.8188 0.87868 14.3287C1.44129 14.8386 2.20435 15.125 3 15.125H17C17.7956 15.125 18.5587 14.8386 19.1213 14.3287C19.6839 13.8188 20 13.1273 20 12.4062V3.34375C20 2.62269 19.6839 1.93117 19.1213 1.4213C18.5587 0.911439 17.7956 0.625 17 0.625ZM16.59 2.4375L10.71 7.76625C10.617 7.85119 10.5064 7.91861 10.3846 7.96462C10.2627 8.01063 10.132 8.03432 10 8.03432C9.86799 8.03432 9.73728 8.01063 9.61542 7.96462C9.49356 7.91861 9.38296 7.85119 9.29 7.76625L3.41 2.4375H16.59ZM18 12.4062C18 12.6466 17.8946 12.8771 17.7071 13.0471C17.5196 13.217 17.2652 13.3125 17 13.3125H3C2.73478 13.3125 2.48043 13.217 2.29289 13.0471C2.10536 12.8771 2 12.6466 2 12.4062V3.71531L7.88 9.04406C8.4425 9.55319 9.205 9.83917 10 9.83917C10.795 9.83917 11.5575 9.55319 12.12 9.04406L18 3.71531V12.4062Z" fill="white"/>
</svg>
