<svg width="20" height="20" viewBox="0 0 20 20" fill="none" xmlns="http://www.w3.org/2000/svg">
<path d="M14.2166 11.8335C14.0333 11.7418 12.8416 11.1918 12.6583 11.1001C12.475 11.0085 12.2916 11.0085 12.1083 11.1918C11.925 11.3751 11.5583 11.9251 11.375 12.1085C11.2833 12.2918 11.1 12.2918 10.9166 12.2001C10.275 11.9251 9.63331 11.5585 9.08331 11.1001C8.62498 10.6418 8.16665 10.0918 7.79998 9.5418C7.70831 9.35846 7.79998 9.17513 7.89165 9.08346C7.98331 8.9918 8.07498 8.80846 8.25831 8.7168C8.34998 8.62513 8.44165 8.4418 8.44165 8.35013C8.53331 8.25846 8.53331 8.07513 8.44165 7.98346C8.34998 7.8918 7.89165 6.7918 7.70831 6.33346C7.61665 5.6918 7.43331 5.6918 7.24998 5.6918C7.15831 5.6918 6.97498 5.6918 6.79165 5.6918C6.60831 5.6918 6.33331 5.87513 6.24165 5.9668C5.69165 6.5168 5.41665 7.15846 5.41665 7.8918C5.50831 8.7168 5.78331 9.5418 6.33331 10.2751C7.34165 11.7418 8.62498 12.9335 10.1833 13.6668C10.6416 13.8501 11.0083 14.0335 11.4666 14.1251C11.925 14.3085 12.3833 14.3085 12.9333 14.2168C13.575 14.1251 14.125 13.6668 14.4916 13.1168C14.675 12.7501 14.675 12.3835 14.5833 12.0168C14.5833 12.0168 14.4 11.9251 14.2166 11.8335ZM16.5083 3.4918C12.9333 -0.0832031 7.15831 -0.0832031 3.58331 3.4918C0.64998 6.42513 0.0999797 10.9168 2.11665 14.4918L0.833313 19.1668L5.69165 17.8835C7.06665 18.6168 8.53331 18.9835 9.99998 18.9835C15.0416 18.9835 19.075 14.9501 19.075 9.90846C19.1666 7.52513 18.1583 5.23346 16.5083 3.4918ZM14.0333 16.3251C12.8416 17.0585 11.4666 17.5168 9.99998 17.5168C8.62498 17.5168 7.34165 17.1501 6.14998 16.5085L5.87498 16.3251L3.03331 17.0585L3.76665 14.3085L3.58331 14.0335C1.38331 10.3668 2.48331 5.78346 6.05831 3.4918C9.63331 1.20013 14.2166 2.3918 16.4166 5.87513C18.6166 9.45013 17.6083 14.1251 14.0333 16.3251Z" fill="white"/>
</svg>
