<svg width="20" height="19" viewBox="0 0 20 19" fill="none" xmlns="http://www.w3.org/2000/svg">
<path d="M17.63 10.0831C17.4192 10.0831 17.1988 10.0189 16.988 9.97309C16.561 9.8831 16.1414 9.76362 15.7325 9.61559C15.288 9.46088 14.7993 9.46892 14.3605 9.63815C13.9217 9.80737 13.5639 10.1258 13.3559 10.5323L13.145 10.9448C12.2116 10.4481 11.3539 9.83122 10.5959 9.11142C9.84336 8.38636 9.19845 7.56592 8.6792 6.67309L9.0817 6.41642C9.5066 6.21743 9.83953 5.87516 10.0165 5.45547C10.1934 5.03579 10.2018 4.56834 10.04 4.14309C9.88787 3.75114 9.76302 3.34999 9.66629 2.94226C9.61837 2.74059 9.58004 2.52976 9.55129 2.31892C9.43491 1.67324 9.08134 1.08852 8.55426 0.67006C8.02717 0.251599 7.3612 0.0268985 6.67629 0.0364237H3.80129C3.38827 0.0327143 2.97928 0.114169 2.60213 0.275243C2.22499 0.436317 1.88856 0.673228 1.61574 0.969849C1.34292 1.26647 1.14012 1.61583 1.02115 1.99416C0.902175 2.37249 0.86982 2.77089 0.926286 3.16226C1.43683 7.00252 3.2704 10.5706 6.13737 13.303C9.00434 16.0354 12.7413 17.7762 16.758 18.2506H17.1221C17.8288 18.2516 18.5111 18.0036 19.0388 17.5539C19.342 17.2945 19.5842 16.9766 19.7494 16.621C19.9146 16.2655 19.999 15.8805 19.9971 15.4914V12.7414C19.9854 12.1047 19.743 11.4916 19.3113 11.0068C18.8796 10.522 18.2854 10.1955 17.63 10.0831ZM18.1092 15.5831C18.109 15.7132 18.0799 15.8419 18.0237 15.9604C17.9675 16.079 17.8856 16.1847 17.7834 16.2706C17.6766 16.3595 17.5514 16.4259 17.416 16.4654C17.2806 16.5049 17.138 16.5166 16.9975 16.4998C13.4085 16.0596 10.0748 14.489 7.52222 12.0359C4.96968 9.58268 3.3436 6.38648 2.90045 2.95142C2.8852 2.81715 2.89857 2.68131 2.93975 2.55212C2.98092 2.42292 3.04906 2.30305 3.14004 2.19976C3.22984 2.10198 3.34039 2.02361 3.46432 1.96987C3.58824 1.91613 3.72272 1.88826 3.85879 1.88809H6.73379C6.95664 1.88335 7.17426 1.95306 7.34917 2.08524C7.52409 2.21741 7.64536 2.40378 7.69212 2.61226C7.73045 2.86281 7.77837 3.11031 7.83587 3.35476C7.94658 3.83797 8.09391 4.31284 8.2767 4.77559L6.93504 5.37142C6.82032 5.42177 6.71713 5.49329 6.63139 5.58189C6.54566 5.67048 6.47906 5.7744 6.43543 5.88769C6.3918 6.00097 6.37199 6.12138 6.37714 6.242C6.38229 6.36263 6.4123 6.48109 6.46545 6.59059C7.84469 9.41645 10.2195 11.688 13.1738 13.0073C13.4071 13.0989 13.6688 13.0989 13.9021 13.0073C14.0216 12.9664 14.1315 12.9032 14.2252 12.8213C14.319 12.7395 14.3949 12.6407 14.4484 12.5306L15.0425 11.2473C15.538 11.4167 16.0436 11.5575 16.5567 11.6689C16.8123 11.7239 17.071 11.7698 17.333 11.8064C17.5509 11.8511 17.7457 11.9671 17.8839 12.1345C18.0221 12.3018 18.095 12.5099 18.09 12.7231L18.1092 15.5831Z" fill="white"/>
</svg>
