<svg width="29" height="29" viewBox="0 0 29 29" fill="none" xmlns="http://www.w3.org/2000/svg">
<ellipse cx="14.4207" cy="14.463" rx="14.4207" ry="14.463" fill="#D6095F"/>
<path d="M17.8658 10.1898C17.6977 10.1898 17.5334 10.2397 17.3936 10.3331C17.2538 10.4265 17.1449 10.5592 17.0805 10.7146C17.0162 10.8699 16.9994 11.0408 17.0322 11.2057C17.065 11.3706 17.1459 11.522 17.2648 11.6409C17.3837 11.7598 17.5351 11.8407 17.7 11.8735C17.8649 11.9063 18.0358 11.8895 18.1911 11.8251C18.3464 11.7608 18.4792 11.6519 18.5726 11.5121C18.666 11.3723 18.7158 11.208 18.7158 11.0398C18.7158 10.8144 18.6263 10.5982 18.4669 10.4388C18.3075 10.2794 18.0913 10.1898 17.8658 10.1898V10.1898ZM21.1242 11.904C21.1104 11.3163 21.0003 10.7348 20.7983 10.1828C20.6182 9.7104 20.3379 9.28267 19.9767 8.92901C19.6259 8.56594 19.1972 8.28739 18.7229 8.11443C18.1723 7.90629 17.5902 7.7937 17.0017 7.78151C16.2508 7.73901 16.01 7.73901 14.0833 7.73901C12.1567 7.73901 11.9158 7.73901 11.165 7.78151C10.5765 7.7937 9.99437 7.90629 9.44375 8.11443C8.97035 8.28914 8.54199 8.56745 8.19 8.92901C7.82693 9.27976 7.54838 9.70849 7.37542 10.1828C7.16728 10.7334 7.05469 11.3155 7.0425 11.904C7 12.6548 7 12.8957 7 14.8223C7 16.749 7 16.9898 7.0425 17.7407C7.05469 18.3292 7.16728 18.9113 7.37542 19.4619C7.54838 19.9362 7.82693 20.3649 8.19 20.7157C8.54199 21.0772 8.97035 21.3556 9.44375 21.5303C9.99437 21.7384 10.5765 21.851 11.165 21.8632C11.9158 21.9057 12.1567 21.9057 14.0833 21.9057C16.01 21.9057 16.2508 21.9057 17.0017 21.8632C17.5902 21.851 18.1723 21.7384 18.7229 21.5303C19.1972 21.3573 19.6259 21.0788 19.9767 20.7157C20.3395 20.3633 20.6201 19.9352 20.7983 19.4619C21.0003 18.9099 21.1104 18.3284 21.1242 17.7407C21.1242 16.9898 21.1667 16.749 21.1667 14.8223C21.1667 12.8957 21.1667 12.6548 21.1242 11.904V11.904ZM19.8492 17.6557C19.844 18.1053 19.7626 18.5508 19.6083 18.9732C19.4952 19.2814 19.3136 19.56 19.0771 19.7878C18.8473 20.0219 18.5694 20.2032 18.2625 20.319C17.8401 20.4733 17.3946 20.5547 16.945 20.5598C16.2367 20.5953 15.9746 20.6023 14.1117 20.6023C12.2488 20.6023 11.9867 20.6023 11.2783 20.5598C10.8115 20.5686 10.3466 20.4967 9.90417 20.3473C9.61076 20.2256 9.34554 20.0447 9.125 19.8161C8.8899 19.5885 8.71051 19.3098 8.60083 19.0015C8.4279 18.5731 8.33198 18.1175 8.3175 17.6557C8.3175 16.9473 8.275 16.6853 8.275 14.8223C8.275 12.9594 8.275 12.6973 8.3175 11.989C8.32068 11.5293 8.40459 11.0738 8.56542 10.6432C8.69012 10.3442 8.88152 10.0777 9.125 9.86401C9.3402 9.62047 9.60616 9.42704 9.90417 9.29735C10.3359 9.14154 10.791 9.06011 11.25 9.05651C11.9583 9.05651 12.2204 9.01401 14.0833 9.01401C15.9463 9.01401 16.2083 9.01401 16.9167 9.05651C17.3663 9.06167 17.8118 9.1431 18.2342 9.29735C18.5561 9.41681 18.845 9.61103 19.0771 9.86401C19.3092 10.0816 19.4906 10.3476 19.6083 10.6432C19.7658 11.0745 19.8472 11.5299 19.8492 11.989C19.8846 12.6973 19.8917 12.9594 19.8917 14.8223C19.8917 16.6853 19.8846 16.9473 19.8492 17.6557ZM14.0833 11.1886C13.3649 11.19 12.6631 11.4043 12.0665 11.8044C11.4698 12.2046 11.0052 12.7726 10.7312 13.4367C10.4573 14.1008 10.3863 14.8312 10.5274 15.5356C10.6684 16.24 11.015 16.8868 11.5235 17.3943C12.0319 17.9018 12.6794 18.2471 13.3841 18.3868C14.0888 18.5264 14.8191 18.454 15.4826 18.1788C16.1462 17.9036 16.7133 17.4378 17.1123 16.8404C17.5112 16.243 17.7242 15.5407 17.7242 14.8223C17.7251 14.3443 17.6315 13.8708 17.4488 13.429C17.2661 12.9873 16.9978 12.586 16.6594 12.2483C16.3211 11.9106 15.9193 11.6431 15.4772 11.4613C15.0351 11.2794 14.5614 11.1867 14.0833 11.1886V11.1886ZM14.0833 17.1811C13.6168 17.1811 13.1608 17.0428 12.7729 16.7836C12.385 16.5244 12.0827 16.156 11.9041 15.725C11.7256 15.294 11.6789 14.8197 11.7699 14.3622C11.8609 13.9046 12.0856 13.4843 12.4154 13.1545C12.7453 12.8246 13.1656 12.5999 13.6232 12.5089C14.0807 12.4179 14.555 12.4646 14.986 12.6431C15.417 12.8217 15.7854 13.124 16.0446 13.5119C16.3037 13.8998 16.4421 14.3558 16.4421 14.8223C16.4421 15.1321 16.3811 15.4388 16.2625 15.725C16.144 16.0112 15.9703 16.2712 15.7512 16.4902C15.5322 16.7093 15.2722 16.883 14.986 17.0015C14.6998 17.1201 14.3931 17.1811 14.0833 17.1811V17.1811Z" fill="white"/>
</svg>
