<svg width="27" height="28" viewBox="0 0 27 28" fill="none" xmlns="http://www.w3.org/2000/svg">
<path d="M15.8824 22.4715C16.2348 22.4715 16.5727 22.3299 16.8219 22.0779C17.071 21.8258 17.211 21.484 17.211 21.1275V18.4394C17.211 18.0829 17.071 17.7411 16.8219 17.489C16.5727 17.237 16.2348 17.0954 15.8824 17.0954C15.5301 17.0954 15.1921 17.237 14.943 17.489C14.6938 17.7411 14.5538 18.0829 14.5538 18.4394V21.1275C14.5538 21.484 14.6938 21.8258 14.943 22.0779C15.1921 22.3299 15.5301 22.4715 15.8824 22.4715ZM10.5681 22.4715C10.9204 22.4715 11.2584 22.3299 11.5075 22.0779C11.7567 21.8258 11.8967 21.484 11.8967 21.1275V18.4394C11.8967 18.0829 11.7567 17.7411 11.5075 17.489C11.2584 17.237 10.9204 17.0954 10.5681 17.0954C10.2157 17.0954 9.87778 17.237 9.62862 17.489C9.37947 17.7411 9.23949 18.0829 9.23949 18.4394V21.1275C9.23949 21.484 9.37947 21.8258 9.62862 22.0779C9.87778 22.3299 10.2157 22.4715 10.5681 22.4715ZM22.5253 6.34299H20.6919L18.3934 1.70603C18.3232 1.53541 18.2189 1.38127 18.0872 1.25326C17.9554 1.12524 17.7989 1.0261 17.6276 0.962021C17.4562 0.897944 17.2736 0.870311 17.0912 0.880848C16.9088 0.891386 16.7305 0.939868 16.5675 1.02326C16.4044 1.10666 16.2601 1.22318 16.1436 1.36554C16.0271 1.5079 15.9409 1.67304 15.8903 1.85064C15.8397 2.02824 15.8259 2.21449 15.8497 2.39774C15.8735 2.58099 15.9344 2.75731 16.0286 2.91567L17.7159 6.34299H8.73463L10.4219 2.91567C10.5509 2.60238 10.5579 2.25134 10.4416 1.93302C10.3253 1.6147 10.0943 1.35267 9.79492 1.19955C9.49555 1.04642 9.15 1.01352 8.82765 1.10747C8.5053 1.20142 8.23001 1.41525 8.05705 1.70603L5.7586 6.34299H3.92515C2.98609 6.35744 2.08224 6.70688 1.373 7.3297C0.663768 7.95251 0.194713 8.80868 0.0485638 9.7472C-0.0975849 10.6857 0.0885617 11.6463 0.574173 12.4595C1.05978 13.2728 1.81366 13.8864 2.70285 14.1922L3.686 24.2188C3.78515 25.2169 4.24845 26.1417 4.98546 26.8127C5.72246 27.4837 6.68024 27.8528 7.67176 27.8477H18.8053C19.7968 27.8528 20.7546 27.4837 21.4916 26.8127C22.2286 26.1417 22.6919 25.2169 22.7911 24.2188L23.7742 14.1922C24.6653 13.8855 25.4204 13.2696 25.9057 12.4537C26.3909 11.6377 26.5751 10.6744 26.4255 9.73421C26.2759 8.79407 25.8023 7.93782 25.0884 7.31712C24.3746 6.69642 23.4666 6.35134 22.5253 6.34299ZM20.1206 23.95C20.0876 24.2827 19.9331 24.591 19.6875 24.8146C19.4418 25.0383 19.1225 25.1613 18.792 25.1596H7.65847C7.32797 25.1613 7.00871 25.0383 6.76304 24.8146C6.51737 24.591 6.36294 24.2827 6.32989 23.95L5.38659 14.4073H21.0639L20.1206 23.95ZM22.5253 11.7192H3.92515C3.57279 11.7192 3.23486 11.5776 2.9857 11.3255C2.73654 11.0735 2.59656 10.7316 2.59656 10.3751C2.59656 10.0187 2.73654 9.6768 2.9857 9.42474C3.23486 9.17269 3.57279 9.03108 3.92515 9.03108H22.5253C22.8777 9.03108 23.2156 9.17269 23.4648 9.42474C23.714 9.6768 23.8539 10.0187 23.8539 10.3751C23.8539 10.7316 23.714 11.0735 23.4648 11.3255C23.2156 11.5776 22.8777 11.7192 22.5253 11.7192Z" fill="#AC2421"/>
</svg>
