<svg width="15" height="14" viewBox="0 0 15 14" fill="none" xmlns="http://www.w3.org/2000/svg">
<path d="M14.3458 12.6377L11.7601 10.1844C12.7638 8.98729 13.2498 7.46788 13.1183 5.93855C12.9868 4.40922 12.2477 2.98621 11.0531 1.96212C9.85841 0.938024 8.29895 0.390694 6.69536 0.432667C5.09177 0.474641 3.56593 1.10273 2.4316 2.18778C1.29726 3.27283 0.640651 4.73238 0.596771 6.2663C0.552891 7.80022 1.12508 9.29193 2.19568 10.4347C3.26629 11.5775 4.75393 12.2844 6.35272 12.4102C7.95151 12.536 9.53993 12.0711 10.7914 11.111L13.3561 13.5644C13.4209 13.6268 13.498 13.6764 13.5829 13.7103C13.6678 13.7441 13.7589 13.7615 13.8509 13.7615C13.943 13.7615 14.034 13.7441 14.119 13.7103C14.2039 13.6764 14.281 13.6268 14.3458 13.5644C14.4714 13.44 14.5416 13.2739 14.5416 13.101C14.5416 12.9281 14.4714 12.762 14.3458 12.6377ZM6.8815 11.111C5.9166 11.111 4.97337 10.8373 4.17108 10.3245C3.3688 9.81176 2.74349 9.08293 2.37424 8.23021C2.00499 7.37749 1.90838 6.43918 2.09662 5.53393C2.28486 4.62869 2.74951 3.79717 3.43179 3.14452C4.11408 2.49188 4.98337 2.04742 5.92972 1.86735C6.87608 1.68729 7.85701 1.77971 8.74846 2.13292C9.63991 2.48612 10.4018 3.08426 10.9379 3.85169C11.474 4.61912 11.7601 5.52137 11.7601 6.44435C11.7601 7.68203 11.2461 8.86901 10.3312 9.74418C9.41628 10.6194 8.17538 11.111 6.8815 11.111Z" fill="white"/>
</svg>
